<?xml version="1.0" encoding="UTF-8" standalone="no"?>
<svg
   xmlns:dc="http://purl.org/dc/elements/1.1/"
   xmlns:cc="http://creativecommons.org/ns#"
   xmlns:rdf="http://www.w3.org/1999/02/22-rdf-syntax-ns#"
   xmlns:svg="http://www.w3.org/2000/svg"
   xmlns="http://www.w3.org/2000/svg"
   xmlns:sodipodi="http://sodipodi.sourceforge.net/DTD/sodipodi-0.dtd"
   xmlns:inkscape="http://www.inkscape.org/namespaces/inkscape"
   id="svg8"
   version="1.1"
   viewBox="0 0 60.854168 10.583333"
   height="40"
   width="230"
   sodipodi:docname="logo.svg"
   inkscape:version="0.92.3 (2405546, 2018-03-11)">
  <sodipodi:namedview
     pagecolor="#ffffff"
     bordercolor="#666666"
     borderopacity="1"
     objecttolerance="10"
     gridtolerance="10"
     guidetolerance="10"
     inkscape:pageopacity="0"
     inkscape:pageshadow="2"
     inkscape:window-width="2560"
     inkscape:window-height="1412"
     id="namedview8"
     showgrid="false"
     fit-margin-top="0"
     fit-margin-left="0"
     fit-margin-right="0"
     fit-margin-bottom="0"
     inkscape:zoom="1.4142136"
     inkscape:cx="-66.72877"
     inkscape:cy="9.5277837"
     inkscape:window-x="0"
     inkscape:window-y="0"
     inkscape:window-maximized="1"
     inkscape:current-layer="layer1" />
  <defs
     id="defs2" />
  <metadata
     id="metadata5">
    <rdf:RDF>
      <cc:Work
         rdf:about="">
        <dc:format>image/svg+xml</dc:format>
        <dc:type
           rdf:resource="http://purl.org/dc/dcmitype/StillImage" />
        <dc:title></dc:title>
      </cc:Work>
    </rdf:RDF>
  </metadata>
  <g
     transform="translate(-31.005072,-100.85735)"
     id="layer1">
    <g
       aria-label="jubla.db"
       style="font-style:normal;font-variant:normal;font-weight:normal;font-stretch:normal;font-size:15.875px;line-height:1.25;font-family:'Source Sans Pro';-inkscape-font-specification:'Source Sans Pro';letter-spacing:0px;word-spacing:0px;fill:#000000;fill-opacity:1;stroke:none;stroke-width:0.26458332"
       id="text817">
      <path
         d="m 32.300428,102.3539 v -1.43316 h 1.548915 v 1.43316 z m 1.548915,0.79375 v 5.67201 q 0,1.11896 -0.148828,1.57647 -0.143316,0.46302 -0.56224,0.72209 -0.413411,0.25907 -1.058333,0.25907 -0.231511,0 -0.501606,-0.0441 -0.264583,-0.0386 -0.573264,-0.12127 l 0.270095,-1.32292 q 0.110244,0.0221 0.209462,0.0331 0.09371,0.0165 0.176389,0.0165 0.237023,0 0.385851,-0.10473 0.15434,-0.0992 0.20395,-0.24253 0.04961,-0.14332 0.04961,-0.8599 v -5.58381 z"
         style="font-style:normal;font-variant:normal;font-weight:bold;font-stretch:normal;font-size:11.28888893px;font-family:Arial;-inkscape-font-specification:'Arial Bold';fill:#014cbf;fill-opacity:0.94117647;stroke-width:0.26458332"
         id="path815" />
      <path
         d="m 39.317398,109.00156 v -0.87644 q -0.319704,0.46854 -0.843359,0.73863 -0.518142,0.2701 -1.096918,0.2701 -0.589801,0 -1.058334,-0.25907 -0.468533,-0.25907 -0.677995,-0.72761 -0.209461,-0.46853 -0.209461,-1.29535 v -3.70417 h 1.548915 v 2.68993 q 0,1.23472 0.08268,1.51584 0.08819,0.27561 0.314193,0.44097 0.225998,0.15986 0.573263,0.15986 0.396875,0 0.711068,-0.21498 0.314193,-0.22048 0.429948,-0.54019 0.115755,-0.32521 0.115755,-1.58199 v -2.46944 h 1.548915 v 5.85391 z"
         style="font-style:normal;font-variant:normal;font-weight:bold;font-stretch:normal;font-size:11.28888893px;font-family:Arial;-inkscape-font-specification:'Arial Bold';fill:#014cbf;fill-opacity:0.94117647;stroke-width:0.26458332"
         id="path817" />
      <path
         d="m 42.299473,109.00156 v -8.08082 h 1.548915 v 2.91042 q 0.71658,-0.8158 1.697743,-0.8158 1.069357,0 1.769401,0.77721 0.700043,0.7717 0.700043,2.2214 0,1.49931 -0.71658,2.30959 -0.711067,0.81029 -1.730816,0.81029 -0.501605,0 -0.992187,-0.24805 -0.48507,-0.25356 -0.837847,-0.74414 v 0.8599 z m 1.53789,-3.05374 q 0,0.90951 0.286632,1.34497 0.402388,0.61736 1.069358,0.61736 0.51263,0 0.87092,-0.43546 0.363802,-0.44097 0.363802,-1.38355 0,-1.00321 -0.363802,-1.44418 -0.363802,-0.44649 -0.931554,-0.44649 -0.556727,0 -0.926041,0.43546 -0.369315,0.42995 -0.369315,1.31189 z"
         style="font-style:normal;font-variant:normal;font-weight:bold;font-stretch:normal;font-size:11.28888893px;font-family:Arial;-inkscape-font-specification:'Arial Bold';fill:#014cbf;fill-opacity:0.94117647;stroke-width:0.26458332"
         id="path819" />
      <path
         d="m 49.266833,109.00156 v -8.08082 h 1.548915 v 8.08082 z"
         style="font-style:normal;font-variant:normal;font-weight:bold;font-stretch:normal;font-size:11.28888893px;font-family:Arial;-inkscape-font-specification:'Arial Bold';fill:#014cbf;fill-opacity:0.94117647;stroke-width:0.26458332"
         id="path821" />
      <path
         d="m 53.555289,104.93359 -1.405599,-0.25356 q 0.237022,-0.84887 0.815798,-1.25677 0.578776,-0.4079 1.719792,-0.4079 1.036285,0 1.543403,0.24805 0.507118,0.24253 0.711067,0.62287 0.209462,0.37482 0.209462,1.38355 l -0.01654,1.80799 q 0,0.7717 0.07166,1.14101 0.07717,0.3638 0.28112,0.78273 h -1.532379 q -0.06063,-0.15434 -0.148828,-0.45751 -0.03858,-0.13781 -0.05512,-0.1819 -0.396875,0.38585 -0.848871,0.57877 -0.451997,0.19293 -0.964627,0.19293 -0.903993,0 -1.427647,-0.49058 -0.518143,-0.49059 -0.518143,-1.24024 0,-0.49609 0.237023,-0.88194 0.237022,-0.39137 0.661458,-0.59531 0.429948,-0.20947 1.234722,-0.36381 1.085894,-0.20395 1.504818,-0.38034 v -0.15434 q 0,-0.44648 -0.220486,-0.63389 -0.220486,-0.19293 -0.832335,-0.19293 -0.413412,0 -0.644922,0.16537 -0.23151,0.15985 -0.374826,0.56775 z m 2.072569,1.25677 q -0.297656,0.0992 -0.942578,0.23702 -0.644922,0.1378 -0.843359,0.2701 -0.303169,0.21497 -0.303169,0.5457 0,0.32522 0.242535,0.56224 0.242535,0.23702 0.617361,0.23702 0.418924,0 0.799262,-0.27561 0.28112,-0.20946 0.369314,-0.51263 0.06063,-0.19843 0.06063,-0.75516 z"
         style="font-style:normal;font-variant:normal;font-weight:bold;font-stretch:normal;font-size:11.28888893px;font-family:Arial;-inkscape-font-specification:'Arial Bold';fill:#014cbf;fill-opacity:0.94117647;stroke-width:0.26458332"
         id="path823" />
      <path
         d="m 58.68159,109.00156 v -1.54892 h 1.548915 v 1.54892 z"
         style="font-style:normal;font-variant:normal;font-weight:bold;font-stretch:normal;font-size:11.28888893px;font-family:Arial;-inkscape-font-specification:'Arial Bold';fill:#014cbf;fill-opacity:0.94117647;stroke-width:0.26458332"
         id="path825" />
      <path
         d="m 67.18133,109.00156 h -1.438672 v -0.8599 q -0.35829,0.50161 -0.848871,0.74965 -0.48507,0.24254 -0.981164,0.24254 -1.008723,0 -1.730815,-0.81029 -0.71658,-0.8158 -0.71658,-2.27101 0,-1.48828 0.700043,-2.25998 0.700043,-0.77721 1.769401,-0.77721 0.981163,0 1.697743,0.8158 v -2.91042 h 1.548915 z m -4.134115,-3.05374 q 0,0.93707 0.259072,1.35599 0.374826,0.60634 1.047309,0.60634 0.534679,0 0.909505,-0.452 0.374826,-0.45751 0.374826,-1.3615 0,-1.00872 -0.363802,-1.44969 -0.363802,-0.44649 -0.931554,-0.44649 -0.551215,0 -0.926041,0.44097 -0.369315,0.43546 -0.369315,1.30638 z"
         style="font-style:normal;font-variant:normal;font-weight:bold;font-stretch:normal;font-size:11.28888893px;font-family:Arial;-inkscape-font-specification:'Arial Bold';fill:#014cbf;fill-opacity:0.94117647;stroke-width:0.26458332"
         id="path827" />
      <path
         d="m 68.647562,109.00156 v -8.08082 h 1.548915 v 2.91042 q 0.71658,-0.8158 1.697743,-0.8158 1.069358,0 1.769401,0.77721 0.700043,0.7717 0.700043,2.2214 0,1.49931 -0.716579,2.30959 -0.711068,0.81029 -1.730816,0.81029 -0.501606,0 -0.992188,-0.24805 -0.485069,-0.25356 -0.837847,-0.74414 v 0.8599 z m 1.537891,-3.05374 q 0,0.90951 0.286632,1.34497 0.402387,0.61736 1.069357,0.61736 0.51263,0 0.87092,-0.43546 0.363802,-0.44097 0.363802,-1.38355 0,-1.00321 -0.363802,-1.44418 -0.363802,-0.44649 -0.931553,-0.44649 -0.556728,0 -0.926042,0.43546 -0.369314,0.42995 -0.369314,1.31189 z"
         style="font-style:normal;font-variant:normal;font-weight:bold;font-stretch:normal;font-size:11.28888893px;font-family:Arial;-inkscape-font-specification:'Arial Bold';fill:#014cbf;fill-opacity:0.94117647;stroke-width:0.26458332"
         id="path829" />
    </g>
  </g>
</svg>
